<?xml version="1.0" encoding="utf-8"?>
<!-- Generator: Adobe Illustrator 26.0.3, SVG Export Plug-In . SVG Version: 6.00 Build 0)  -->
<svg version="1.1" id="Laag_1" xmlns="http://www.w3.org/2000/svg" xmlns:xlink="http://www.w3.org/1999/xlink" x="0px" y="0px"
	 viewBox="0 0 305 221.26" style="enable-background:new 0 0 305 221.26;" xml:space="preserve">
<style type="text/css">
	.st0{fill:none;stroke:#E6007E;stroke-width:2;stroke-miterlimit:10;}
	.st1{fill:#E6007E;}
</style>
<path class="st0" d="M-1.54,15.61"/>
<g>
	<path class="st1" d="M234.81,51.04v80h-80v-80H234.81 M239.81,46.04h-5h-80h-5v5v80v5h5h80h5v-5v-80V46.04L239.81,46.04z"/>
</g>
<g>
	<path class="st1" d="M149.9,51.04v80h-80v-80H149.9 M154.9,46.04h-5h-80h-5v5v80v5h5h80h5v-5v-80V46.04L154.9,46.04z"/>
</g>
<g>
	<path class="st1" d="M234.81,136.29v80h-80v-80H234.81 M239.81,131.29h-5h-80h-5v5v80v5h5h80h5v-5v-80V131.29L239.81,131.29z"/>
</g>
<g>
	<path class="st1" d="M299.99,156.29v60h-60v-60H299.99 M304.99,151.29h-5h-60h-5v5v60v5h5h60h5v-5v-60V151.29L304.99,151.29z"/>
</g>
<g>
	<path class="st1" d="M299.99,91.04v60h-60v-60H299.99 M304.99,86.04h-5h-60h-5v5v60v5h5h60h5v-5v-60V86.04L304.99,86.04z"/>
</g>
<g>
	<path class="st1" d="M65,156.26v60H5v-60H65 M70,151.26h-5H5H0v5v60v5h5h60h5v-5v-60V151.26L70,151.26z"/>
</g>
<g>
	<path class="st1" d="M65,91.04v60H5v-60H65 M70,86.04h-5H5H0v5v60v5h5h60h5v-5v-60V86.04L70,86.04z"/>
</g>
<g>
	<path class="st1" d="M149.9,136.29v80h-80v-80H149.9 M154.9,131.29h-5h-80h-5v5v80v5h5h80h5v-5v-80V131.29L154.9,131.29z"/>
</g>
<g>
	<path class="st1" d="M152.5,5.56l82.5,40H70L152.5,5.56 M152.5,0l-2.18,1.06l-82.5,40l-19.59,9.5H70h165h21.77l-19.59-9.5l-82.5-40
		L152.5,0L152.5,0z"/>
</g>
</svg>
